<svg id="圖層_1" data-name="圖層 1" xmlns="http://www.w3.org/2000/svg" viewBox="0 0 60 60"><defs><style>.cls-1,.cls-10,.cls-11,.cls-12,.cls-2,.cls-3,.cls-4,.cls-5,.cls-6,.cls-7,.cls-8,.cls-9{fill:#fff;}.cls-2{opacity:0.4;}.cls-3{opacity:0.9;}.cls-4{opacity:0.35;}.cls-5{opacity:0.8;}.cls-6{opacity:0.3;}.cls-7{opacity:0.7;}.cls-8{opacity:0.25;}.cls-9{opacity:0.6;}.cls-10{opacity:0.2;}.cls-11{opacity:0.5;}.cls-12{opacity:0.1;}</style></defs><title>load</title><circle class="cls-1" cx="30" cy="4.17" r="4"/><circle class="cls-2" cx="30" cy="55.83" r="4"/><circle class="cls-3" cx="17.08" cy="7.63" r="4" transform="translate(-1.53 9.56) rotate(-30)"/><circle class="cls-4" cx="42.92" cy="52.37" r="4" transform="translate(-20.44 28.47) rotate(-30)"/><circle class="cls-5" cx="7.63" cy="17.08" r="4" transform="translate(-10.98 15.15) rotate(-60)"/><circle class="cls-6" cx="52.37" cy="42.92" r="4" transform="translate(-10.98 66.81) rotate(-60)"/><circle class="cls-7" cx="4.17" cy="30" r="4"/><circle class="cls-8" cx="55.83" cy="30" r="4"/><circle class="cls-9" cx="7.63" cy="42.92" r="4" transform="translate(-20.44 9.56) rotate(-30)"/><circle class="cls-10" cx="52.37" cy="17.08" r="4" transform="translate(-1.53 28.47) rotate(-30)"/><circle class="cls-11" cx="17.08" cy="52.37" r="4" transform="translate(-36.81 40.98) rotate(-60)"/><circle class="cls-12" cx="42.92" cy="7.63" r="4" transform="translate(14.85 40.98) rotate(-60)"/></svg>