<svg xmlns="http://www.w3.org/2000/svg" xmlns:xlink="http://www.w3.org/1999/xlink" width="32" height="32" viewBox="0 0 32 32"><defs><style>.a{fill:#fff;}.b{clip-path:url(#a);}.c{fill:#9b9a99;}</style><clipPath id="a"><rect class="a" width="32" height="32" transform="translate(349 2221)"/></clipPath></defs><g class="b" transform="translate(-349 -2221)"><g transform="translate(349 2221)"><path class="c" d="M10.88,32c-3.556-11.724,3.947-16,3.947-16a18.169,18.169,0,0,0,3.022,11.129,19.049,19.049,0,0,0,3.787-2.24A40.634,40.634,0,0,1,20.32,32a18.8,18.8,0,0,0,6.044-9.484c1.44-5.92-2.756-11.849-2.756-11.849A15.9,15.9,0,0,1,19.68,22.124a2.276,2.276,0,0,0,.347-.533c.5-1,1.3-3.556.827-9.6C20.2,3.556,12.587,0,12.587,0c.658,5.138-1.316,6.32-5.92,16.071S10.88,32,10.88,32Z"/></g></g></svg>